<svg xmlns="http://www.w3.org/2000/svg" width="32" height="32" viewBox="5 5 32 32" fill="none">
    <path d="M18.5391 18.0849V12.2662H14.7887L19.3554 7.69359C19.5739 7.47376 19.8337 7.29932 20.1197 7.1803C20.4058 7.06127 20.7125 7 21.0223 7C21.332 7 21.6387 7.06127 21.9248 7.1803C22.2108 7.29932 22.4706 7.47376 22.6891 7.69359L27.2558 12.2662H23.4769V18.0849H18.5391Z" fill="#a3e635"></path>
    <path d="M12.2599 27.2531V14.7355L7.69317 19.3081C7.47346 19.5274 7.29913 19.788 7.18018 20.0749C7.06123 20.3618 7 20.6694 7 20.98C7 21.2906 7.06123 21.5982 7.18018 21.8851C7.29913 22.172 7.47346 22.4326 7.69317 22.6519L12.2599 27.2531Z" fill="#a3e635"></path>
    <path d="M23.4483 29.7338V23.9093H18.5106V29.7338H14.7316L19.2983 34.3064C19.5169 34.5262 19.7766 34.7007 20.0627 34.8197C20.3487 34.9387 20.6554 35 20.9652 35C21.2749 35 21.5817 34.9387 21.8677 34.8197C22.1538 34.7007 22.4135 34.5262 22.632 34.3064L27.1987 29.7338H23.4483Z" fill="#a3e635"></path>
    <path d="M29.7447 14.7526V27.2702L34.3114 22.6976C34.5322 22.4751 34.7067 22.211 34.8249 21.9206C34.9431 21.6301 35.0026 21.3191 34.9999 21.0055C34.9973 20.6918 34.9325 20.3819 34.8094 20.0935C34.6864 19.8051 34.5074 19.544 34.2828 19.3253L29.7447 14.7526Z" fill="#a3e635"></path>
</svg>